<svg width="16" height="17" viewBox="0 0 16 17" fill="none" xmlns="http://www.w3.org/2000/svg">
<path d="M13.3333 4.49999H7.99992L6.66659 3.16666H2.66659C1.93325 3.16666 1.33992 3.76666 1.33992 4.49999L1.33325 12.5C1.33325 13.2333 1.93325 13.8333 2.66659 13.8333H13.3333C14.0666 13.8333 14.6666 13.2333 14.6666 12.5V5.83332C14.6666 5.09999 14.0666 4.49999 13.3333 4.49999ZM13.3333 12.5H2.66659V4.49999H6.11325L7.44659 5.83332H13.3333V12.5ZM9.99992 9.16666C10.7333 9.16666 11.3333 8.56666 11.3333 7.83332C11.3333 7.09999 10.7333 6.49999 9.99992 6.49999C9.26659 6.49999 8.66659 7.09999 8.66659 7.83332C8.66659 8.56666 9.26659 9.16666 9.99992 9.16666ZM7.33325 11.8333H12.6666V11.1667C12.6666 10.28 10.8866 9.83332 9.99992 9.83332C9.11325 9.83332 7.33325 10.28 7.33325 11.1667V11.8333Z" fill="#A8B0B9"/>
</svg>
