<svg width="88" height="33" viewBox="0 0 88 33" fill="none" xmlns="http://www.w3.org/2000/svg">
<rect y="0.5" width="32" height="32" rx="16" fill="#242D35"/>
<path d="M18.991 15.98C21.744 14.88 23.458 14.248 28 13.14C25.533 13.303 20.078 13.677 16.318 14.411L18.991 15.981V15.98ZM10.431 19.632H14.031C14.744 18.552 15.453 18.026 16.279 17.441C15.6517 17.1984 15.0209 16.9647 14.387 16.74C12.09 17.754 10.812 19.115 10.434 19.632H10.431ZM11.143 15.704C7.933 16.851 6.149 18.097 4.944 19.632H8.919C9.306 19.093 10.781 17.539 13.552 16.458C12.7543 16.1889 11.9508 15.9375 11.142 15.704H11.143ZM12.79 13.288H4C12.862 14.888 17.133 16.948 24 19.86C23.413 19.421 13.949 13.847 12.791 13.288" fill="white"/>
<path d="M42.184 22V18.024H44.48L47.182 22H48.442L45.6 17.898C47.182 17.632 48.176 16.498 48.176 14.986C48.176 13.054 46.846 11.948 44.718 11.948H41.134V22H42.184ZM42.184 12.83H44.634C46.174 12.83 47.126 13.586 47.126 14.986C47.126 16.386 46.174 17.142 44.634 17.142H42.184V12.83ZM52.4933 22.14C54.1873 22.14 55.4333 21.146 55.7693 19.508H54.8033C54.5653 20.684 53.7113 21.37 52.4793 21.37C51.0373 21.37 50.1133 20.292 50.0293 18.542H55.7413C55.9093 16.176 54.5373 14.482 52.4373 14.482C50.4773 14.482 49.0493 16.092 49.0493 18.248C49.0493 20.586 50.4213 22.14 52.4933 22.14ZM52.4233 15.238C53.7813 15.238 54.6353 16.218 54.7193 17.87H50.0293C50.1553 16.26 51.0933 15.238 52.4233 15.238ZM60.1222 22.14C61.8162 22.14 63.0622 21.146 63.3982 19.508H62.4322C62.1942 20.684 61.3402 21.37 60.1082 21.37C58.6662 21.37 57.7422 20.292 57.6582 18.542H63.3702C63.5382 16.176 62.1662 14.482 60.0662 14.482C58.1062 14.482 56.6782 16.092 56.6782 18.248C56.6782 20.586 58.0502 22.14 60.1222 22.14ZM60.0522 15.238C61.4102 15.238 62.2642 16.218 62.3482 17.87H57.6582C57.7842 16.26 58.7222 15.238 60.0522 15.238ZM71.7518 18.304C71.7518 16.036 70.4778 14.482 68.5038 14.482C67.3838 14.482 66.4458 15.098 65.9698 16.176V11.948H64.9898V22H65.8998V20.446C66.4178 21.524 67.3698 22.14 68.5038 22.14C70.4778 22.14 71.7518 20.572 71.7518 18.304ZM70.7578 18.304C70.7578 20.18 69.7918 21.286 68.3498 21.286C66.9358 21.286 65.9558 20.124 65.9558 18.276C65.9558 16.414 66.9638 15.336 68.3498 15.336C69.7918 15.336 70.7578 16.428 70.7578 18.304ZM76.2836 22.14C78.3276 22.14 79.7976 20.53 79.7976 18.304C79.7976 16.092 78.3276 14.496 76.2836 14.496C74.2536 14.496 72.7836 16.092 72.7836 18.304C72.7836 20.53 74.2536 22.14 76.2836 22.14ZM76.2836 21.286C74.8556 21.286 73.7776 20.138 73.7776 18.304C73.7776 16.498 74.8556 15.35 76.2836 15.35C77.7256 15.35 78.8036 16.498 78.8036 18.304C78.8036 20.138 77.7256 21.286 76.2836 21.286ZM82.3624 22V18.458L86.1144 22H87.3884L83.3564 18.234L87.0804 14.622H85.9184L82.3624 18.052V11.948H81.3824V22H82.3624Z" fill="#242D35"/>
</svg>
