<svg width="16" height="16" viewBox="0 0 16 16" fill="none" xmlns="http://www.w3.org/2000/svg">
<path d="M10.3666 3.69999L7.33329 0.666656V2.71332C4.70663 3.03999 2.66663 5.27999 2.66663 7.99999C2.66663 10.72 4.69996 12.96 7.33329 13.2867V11.94C5.43996 11.62 3.99996 9.97999 3.99996 7.99999C3.99996 6.01999 5.43996 4.37999 7.33329 4.05999V6.66666L10.3666 3.69999ZM13.2866 7.33332C13.1733 6.40666 12.8066 5.51332 12.2066 4.73999L11.26 5.68666C11.62 6.18666 11.8466 6.75332 11.94 7.33332H13.2866ZM8.66663 11.9333V13.28C9.59329 13.1667 10.4933 12.8067 11.2666 12.2067L10.3066 11.2467C9.80663 11.6067 9.24663 11.84 8.66663 11.9333ZM11.26 10.32L12.2066 11.26C12.8066 10.4867 13.1733 9.59332 13.2866 8.66666H11.94C11.8466 9.24666 11.62 9.81332 11.26 10.32V10.32Z" fill="#A8B0B9"/>
</svg>
