<svg width="72" height="33" viewBox="0 0 72 33" fill="none" xmlns="http://www.w3.org/2000/svg">
<rect y="0.5" width="32" height="32" rx="16" fill="#373F47"/>
<g clip-path="url(#clip0_287_526)">
<path d="M23.1346 17.7624V18.1823H25.4701V17.761H25.0283L24.9127 17.7545C24.866 17.7422 24.8334 17.7102 24.8215 17.6761L24.8117 17.584V16.92L24.8294 16.8574C24.8606 16.8209 26.0687 15.4599 26.1244 15.4004C26.2408 15.2682 26.3041 15.2398 26.4602 15.2398H26.8899V14.8222H24.9656V15.2398H25.2537C25.3392 15.2398 25.363 15.3253 25.3261 15.3709L24.5084 16.3133L24.485 16.3107L23.6884 15.3709C23.6309 15.301 23.6784 15.2398 23.7407 15.2398H24.0238V14.8222H21.6756V15.2398H22.0939C22.2756 15.2398 22.3935 15.3536 22.4627 15.4277C22.5169 15.4859 23.7126 16.8235 23.7407 16.8616C23.7705 16.8983 23.7705 16.9037 23.7705 16.92V17.584L23.7629 17.6761C23.7446 17.7102 23.716 17.7422 23.6706 17.7545L23.5531 17.7624H23.1346ZM15.9483 14.8222V15.241H16.3203C16.59 15.241 16.6096 15.3897 16.6096 15.5171V17.4837C16.6096 17.6017 16.6166 17.7624 16.4443 17.7624H15.9825V18.1823H17.9502V17.7624H17.4706C17.2806 17.7624 17.2695 17.6776 17.2663 17.4919V15.809L19.9642 18.1823H20.6496L20.6136 15.5015C20.6184 15.3068 20.6294 15.2398 20.8332 15.2398H21.2637V14.8222H19.2609V15.2398H19.702C19.9024 15.2398 19.9383 15.3187 19.9394 15.5015L19.9642 16.9037L17.6227 14.8222H15.9483ZM7.10399 14.6085C6.68216 14.6085 6.2013 14.6898 5.79737 14.8674C5.42016 15.034 5.10986 15.301 5.10986 15.746C5.10986 16.1446 5.36779 16.379 5.35978 16.3713C5.47091 16.4714 5.6471 16.6417 6.1086 16.7396C6.31363 16.7846 6.75376 16.851 7.19375 16.8997C7.62853 16.9441 8.05824 16.9871 8.23335 17.0298C8.37187 17.0659 8.60322 17.1132 8.60322 17.3699C8.60322 17.6279 8.35811 17.7054 8.31537 17.7216C8.27155 17.7394 7.97849 17.8719 7.44794 17.8719C7.05764 17.8719 6.58812 17.7561 6.41662 17.6977C6.22093 17.6279 6.01429 17.5346 5.82088 17.3019C5.77212 17.2439 5.69973 17.0852 5.69973 16.9289H5.21659V18.2514H5.74941V18.0731C5.74941 18.0549 5.7776 17.9691 5.86429 18.0112C5.97489 18.0616 6.30188 18.1877 6.64516 18.2578C6.92366 18.315 7.10399 18.356 7.45128 18.356C8.01977 18.356 8.32392 18.2656 8.53389 18.2064C8.73572 18.1491 8.9811 18.0478 9.17785 17.893C9.28605 17.8093 9.52114 17.5909 9.52114 17.1972C9.52114 16.8173 9.31757 16.5819 9.2433 16.5119C9.14459 16.4137 9.02558 16.3385 8.89962 16.2803C8.78822 16.2305 8.61618 16.1683 8.47579 16.1353C8.19956 16.0671 7.57951 15.9857 7.28485 15.956C6.97442 15.9228 6.43291 15.8789 6.21919 15.8132C6.15361 15.7941 6.01883 15.7294 6.01883 15.5781C6.01883 15.4705 6.08215 15.3777 6.20129 15.3018C6.39137 15.1846 6.78034 15.1125 7.18012 15.1125C7.65765 15.1114 8.05971 15.2153 8.31537 15.3292C8.40299 15.3709 8.50357 15.4235 8.58625 15.4889C8.67735 15.5626 8.80478 15.715 8.85113 15.928H9.28217V14.7764H8.80291V14.9097C8.80291 14.9537 8.75776 15.0088 8.67014 14.9643C8.45642 14.8516 7.8496 14.6121 7.10399 14.6085ZM12.8689 18.3914C12.0809 18.3914 11.3502 18.1574 10.8597 17.7237C10.4924 17.3972 10.3124 16.9529 10.3124 16.4975C10.3124 16.0471 10.499 15.5967 10.8597 15.2717C11.314 14.8647 12.1163 14.6084 12.8689 14.6084C13.7075 14.6084 14.3744 14.817 14.8836 15.2736C15.2474 15.6003 15.4235 16.0444 15.4235 16.4975C15.4235 16.935 15.2376 17.4023 14.8836 17.7237C14.4101 18.1615 13.6618 18.3914 12.8689 18.3914V17.893C13.2907 17.893 13.6778 17.7484 13.9483 17.4837C14.2177 17.2172 14.3433 16.8947 14.3433 16.4975C14.3433 16.1137 14.2084 15.761 13.9483 15.5084C13.6816 15.2494 13.2827 15.1008 12.8689 15.1008C12.4548 15.1008 12.0581 15.2469 11.7884 15.5084C11.5322 15.761 11.396 16.117 11.396 16.4975C11.396 16.8753 11.534 17.2298 11.7884 17.4837C12.0581 17.747 12.4548 17.893 12.8689 17.893" fill="white"/>
</g>
<path d="M48.176 19.214C48.176 17.702 47.21 17.002 45.516 16.652L44.242 16.386C43.122 16.162 42.114 15.798 42.114 14.608C42.114 13.6 42.94 12.662 44.48 12.662C45.922 12.662 46.902 13.628 46.972 14.958H48.05C47.938 13.04 46.426 11.808 44.466 11.808C42.464 11.808 41.05 13.054 41.05 14.664C41.05 16.414 42.45 17.03 43.78 17.296L45.054 17.548C46.482 17.842 47.07 18.318 47.07 19.354C47.07 20.558 45.95 21.286 44.522 21.286C42.786 21.286 41.89 20.362 41.792 18.934H40.728C40.826 20.838 42.198 22.14 44.536 22.14C46.874 22.14 48.176 20.81 48.176 19.214ZM53.0141 22.14C55.0581 22.14 56.5281 20.53 56.5281 18.304C56.5281 16.092 55.0581 14.496 53.0141 14.496C50.9841 14.496 49.5141 16.092 49.5141 18.304C49.5141 20.53 50.9841 22.14 53.0141 22.14ZM53.0141 21.286C51.5861 21.286 50.5081 20.138 50.5081 18.304C50.5081 16.498 51.5861 15.35 53.0141 15.35C54.4561 15.35 55.5341 16.498 55.5341 18.304C55.5341 20.138 54.4561 21.286 53.0141 21.286ZM59.0928 17.702C59.0928 16.33 60.0168 15.336 61.1648 15.336C62.3688 15.336 63.0128 16.134 63.0128 17.548V22H63.9928V17.212C63.9928 15.462 62.9988 14.482 61.4588 14.482C60.3948 14.482 59.4988 15.098 59.0228 16.008V14.622H58.1128V22H59.0928V17.702ZM71.4668 14.622H70.4728L68.2188 20.726L65.8388 14.622H64.7888L67.7148 21.902L66.6368 24.702H67.6868L71.4668 14.622Z" fill="#242D35"/>
<defs>
<clipPath id="clip0_287_526">
<rect width="22" height="4" fill="white" transform="translate(5 14.5)"/>
</clipPath>
</defs>
</svg>
