<svg width="78" height="33" viewBox="0 0 78 33" fill="none" xmlns="http://www.w3.org/2000/svg">
<rect y="0.5" width="32" height="32" rx="16" fill="#373F47"/>
<g clip-path="url(#clip0_287_535)">
<path d="M16.713 8.97872C17.8396 7.50717 19.4059 7.5 19.4059 7.5C19.4059 7.5 19.6389 8.8835 18.5196 10.2163C17.3245 11.6393 15.9661 11.4065 15.9661 11.4065C15.9661 11.4065 15.7111 10.2873 16.713 8.97872ZM16.1094 12.3756C16.689 12.3756 17.7648 11.5861 19.165 11.5861C21.5752 11.5861 22.5233 13.2856 22.5233 13.2856C22.5233 13.2856 20.6689 14.2252 20.6689 16.505C20.6689 19.0769 22.979 19.9632 22.979 19.9632C22.979 19.9632 21.3641 24.4675 19.1829 24.4675C18.1811 24.4675 17.4022 23.7984 16.3466 23.7984C15.2709 23.7984 14.2034 24.4924 13.5081 24.4924C11.5163 24.4925 9 20.2197 9 16.7852C9 13.4061 11.1299 11.6334 13.1277 11.6334C14.4264 11.6334 15.4343 12.3756 16.1094 12.3756Z" fill="white"/>
</g>
<path d="M48.218 22H49.324L45.432 11.948H44.284L40.378 22H41.414L42.478 19.214H47.168L48.218 22ZM44.83 13.068L46.832 18.36H42.8L44.83 13.068ZM57.533 18.304C57.533 16.05 56.259 14.482 54.299 14.482C53.165 14.482 52.185 15.126 51.681 16.218V14.622H50.771V24.702H51.751V20.488C52.255 21.538 53.193 22.14 54.299 22.14C56.259 22.14 57.533 20.586 57.533 18.304ZM56.539 18.304C56.539 20.194 55.573 21.286 54.131 21.286C52.731 21.286 51.737 20.138 51.737 18.304C51.737 16.428 52.759 15.336 54.131 15.336C55.573 15.336 56.539 16.442 56.539 18.304ZM65.8729 18.304C65.8729 16.05 64.5989 14.482 62.6389 14.482C61.5049 14.482 60.5249 15.126 60.0209 16.218V14.622H59.1109V24.702H60.0909V20.488C60.5949 21.538 61.5329 22.14 62.6389 22.14C64.5989 22.14 65.8729 20.586 65.8729 18.304ZM64.8789 18.304C64.8789 20.194 63.9129 21.286 62.4709 21.286C61.0709 21.286 60.0769 20.138 60.0769 18.304C60.0769 16.428 61.0989 15.336 62.4709 15.336C63.9129 15.336 64.8789 16.442 64.8789 18.304ZM68.4307 22V11.948H67.4507V22H68.4307ZM73.4522 22.14C75.1462 22.14 76.3922 21.146 76.7282 19.508H75.7622C75.5242 20.684 74.6702 21.37 73.4382 21.37C71.9962 21.37 71.0722 20.292 70.9882 18.542H76.7002C76.8682 16.176 75.4962 14.482 73.3962 14.482C71.4362 14.482 70.0082 16.092 70.0082 18.248C70.0082 20.586 71.3802 22.14 73.4522 22.14ZM73.3822 15.238C74.7402 15.238 75.5942 16.218 75.6782 17.87H70.9882C71.1142 16.26 72.0522 15.238 73.3822 15.238Z" fill="#242D35"/>
<defs>
<clipPath id="clip0_287_535">
<rect width="14" height="17" fill="white" transform="translate(9 7.5)"/>
</clipPath>
</defs>
</svg>
