<svg width="16" height="16" viewBox="0 0 16 16" fill="none" xmlns="http://www.w3.org/2000/svg">
<g opacity="0.9">
<path d="M8.00016 1.33333C5.42016 1.33333 3.3335 3.42 3.3335 6C3.3335 9.5 8.00016 14.6667 8.00016 14.6667C8.00016 14.6667 12.6668 9.5 12.6668 6C12.6668 3.42 10.5802 1.33333 8.00016 1.33333ZM4.66683 6C4.66683 4.16 6.16016 2.66667 8.00016 2.66667C9.84016 2.66667 11.3335 4.16 11.3335 6C11.3335 7.92 9.4135 10.7933 8.00016 12.5867C6.6135 10.8067 4.66683 7.9 4.66683 6Z" fill="#717D8A"/>
<path d="M8.00016 7.66667C8.92064 7.66667 9.66683 6.92048 9.66683 6C9.66683 5.07953 8.92064 4.33333 8.00016 4.33333C7.07969 4.33333 6.3335 5.07953 6.3335 6C6.3335 6.92048 7.07969 7.66667 8.00016 7.66667Z" fill="#A8B0B9"/>
</g>
</svg>
