<svg width="114" height="36" viewBox="0 0 114 36" fill="none" xmlns="http://www.w3.org/2000/svg">
<path d="M7.192 7.28H2.656V28H7.192V7.28ZM15.2954 28V20.328C15.2954 18.592 16.3874 17.472 18.0954 17.472C19.5794 17.472 20.5594 18.62 20.5594 20.384V28H24.8714V19.348C24.8714 15.68 22.9394 13.552 19.6074 13.552C17.7874 13.552 16.1914 14.252 15.3234 15.456L15.0434 14H10.9834V28H15.2954ZM31.6664 28H35.9224L41.7744 14H37.2944L35.4184 18.9C34.7184 20.72 34.1024 22.54 33.9344 23.352C33.8224 22.708 33.2624 20.944 32.5624 18.9L30.8544 14H26.2064L31.6664 28ZM49.3348 28.364C53.1708 28.364 55.9428 26.376 56.4468 23.268H52.4988C52.1908 24.276 51.0428 24.864 49.4188 24.864C47.5148 24.864 46.4788 23.996 46.2268 22.148L56.3908 22.092V21C56.3908 16.436 53.6468 13.552 49.2508 13.552C45.0228 13.552 42.0828 16.604 42.0828 20.972C42.0828 25.284 45.1068 28.364 49.3348 28.364ZM49.2788 17.052C51.0148 17.052 52.1068 18.004 52.1068 19.488H46.2828C46.6188 17.808 47.5708 17.052 49.2788 17.052ZM57.9363 23.576C57.9363 26.404 60.2603 28.364 63.9563 28.364C67.5963 28.364 70.1443 26.544 70.1443 23.548C70.1443 21.308 68.8843 20.244 66.5883 19.74L63.9843 19.18C63.0043 18.956 62.4723 18.592 62.4723 17.948C62.4723 17.192 63.0883 16.688 64.0683 16.688C65.1043 16.688 65.6923 17.332 65.6923 18.284H69.7803C69.7803 15.456 67.5123 13.552 64.2643 13.552C60.9043 13.552 58.4123 15.232 58.4123 18.144C58.4123 20.608 59.6723 21.728 62.2483 22.288L64.8243 22.848C65.8603 23.072 66.0843 23.52 66.0843 23.94C66.0843 24.668 65.4683 25.144 64.1243 25.144C62.8083 25.144 62.0803 24.556 62.0243 23.576H57.9363ZM78.0534 28V17.584H80.7134V14H78.0534V9.66H73.7414V14H71.0814V17.584H73.7414V28H78.0534ZM86.9633 28V6.888H82.6513V28H86.9633ZM89.0782 34.72C89.9182 34.972 90.8982 35.112 91.9342 35.112C94.3982 35.112 95.9662 33.908 97.1422 31.052L104.254 14H99.7742L96.3862 22.988L93.3342 14H88.7142L94.3422 28.476L94.0902 29.148C93.5302 30.66 92.9142 31.108 91.4582 31.108H89.0782V34.72Z" fill="#0D0D54"/>
<path d="M108.718 28.364C110.09 28.364 111.294 27.216 111.294 25.844C111.294 24.444 110.09 23.296 108.718 23.296C107.29 23.296 106.142 24.444 106.142 25.844C106.142 27.216 107.29 28.364 108.718 28.364Z" fill="#4040F2"/>
</svg>
