<svg width="73" height="33" viewBox="0 0 73 33" fill="none" xmlns="http://www.w3.org/2000/svg">
<rect y="0.5" width="32" height="32" rx="16" fill="#373F47"/>
<g clip-path="url(#clip0_287_514)">
<path d="M16.0002 12.5215L17.8564 10.252C20.1822 10.3788 22.3482 10.933 24.3207 11.8383L24.2104 11.7925C23.5894 12.601 22.7704 13.2288 21.8254 13.6075L21.7872 13.621C21.6777 12.5418 20.9217 12.2785 18.5217 12.2785L16.0009 26.5L13.4652 12.2755C11.0802 12.2755 10.3242 12.541 10.2139 13.6195C9.23142 13.2303 8.41317 12.6055 7.80192 11.8128L7.79217 11.8C9.65292 10.939 11.8189 10.3833 14.0989 10.2573L14.1447 10.255L16.0009 12.5215H16.0002ZM16.0002 9.59651C16.0804 9.59501 16.1749 9.59501 16.2694 9.59501C19.2447 9.59501 22.0729 10.225 24.6274 11.359L24.4962 11.3073C24.6739 11.0118 24.8434 10.6675 24.9837 10.309L25.0002 10.2618C22.3369 9.16451 19.2469 8.51951 16.0077 8.50076H16.0002C12.7542 8.51876 9.66342 9.16376 6.83667 10.3218L7.00017 10.2625C7.16817 10.6788 7.33692 11.0238 7.52742 11.356L7.50417 11.3125C9.93267 10.2265 12.7669 9.59426 15.7497 9.59426C15.8382 9.59426 15.9259 9.59501 16.0137 9.59576H16.0002V9.59651Z" fill="white"/>
</g>
<path d="M44.69 22V12.886H48.064V11.948H40.28V12.886H43.654V22H44.69ZM51.2491 22.14C52.9431 22.14 54.1891 21.146 54.5251 19.508H53.5591C53.3211 20.684 52.4671 21.37 51.2351 21.37C49.7931 21.37 48.8691 20.292 48.7851 18.542H54.4971C54.6651 16.176 53.2931 14.482 51.1931 14.482C49.2331 14.482 47.8051 16.092 47.8051 18.248C47.8051 20.586 49.1771 22.14 51.2491 22.14ZM51.1791 15.238C52.5371 15.238 53.3911 16.218 53.4751 17.87H48.7851C48.9111 16.26 49.8491 15.238 51.1791 15.238ZM61.6327 19.942C61.6327 18.892 60.9747 18.276 59.5047 17.996L58.3987 17.786C57.3067 17.576 56.8587 17.226 56.8587 16.498C56.8587 15.728 57.5727 15.238 58.6087 15.238C59.7707 15.238 60.5127 15.84 60.6107 16.862H61.5347C61.4227 15.392 60.3027 14.482 58.6087 14.482C56.9987 14.482 55.9067 15.35 55.9067 16.582C55.9067 17.646 56.6487 18.332 58.0487 18.598L59.1127 18.808C60.2327 19.032 60.6527 19.368 60.6527 20.096C60.6527 20.936 59.9247 21.398 58.7207 21.398C57.4607 21.398 56.6347 20.74 56.5647 19.69H55.6267C55.7667 21.216 56.8867 22.14 58.7207 22.14C60.5407 22.14 61.6327 21.3 61.6327 19.942ZM64.3155 22V11.948H63.3355V22H64.3155ZM70.975 22H71.815V17.198C71.815 15.49 70.807 14.482 69.085 14.482C67.405 14.482 66.271 15.574 66.229 17.212H67.125C67.139 16.008 67.895 15.266 69.099 15.266C70.219 15.266 70.877 15.994 70.877 17.226V17.842C70.149 17.786 69.813 17.758 69.365 17.758C67.125 17.758 65.977 18.514 65.977 19.956C65.977 21.286 66.971 22.14 68.497 22.14C69.645 22.14 70.541 21.58 70.975 20.656V22ZM66.915 19.928C66.915 18.906 67.727 18.416 69.407 18.416C69.813 18.416 70.247 18.43 70.877 18.486V19.144C70.877 20.53 70.009 21.426 68.637 21.426C67.601 21.426 66.915 20.824 66.915 19.928Z" fill="#242D35"/>
<defs>
<clipPath id="clip0_287_514">
<rect width="18" height="18" fill="white" transform="translate(7 8.5)"/>
</clipPath>
</defs>
</svg>
