<svg width="121" height="33" viewBox="0 0 121 33" fill="none" xmlns="http://www.w3.org/2000/svg">
<rect y="0.5" width="32" height="32" rx="16" fill="#373F47"/>
<g clip-path="url(#clip0_287_520)">
<path d="M8.98553 19.4975C8.44921 19.4776 8.01041 19.3403 7.66731 19.0854C7.60183 19.0367 7.4458 18.8907 7.39346 18.8291C7.25432 18.6654 7.15973 18.5062 7.09664 18.3295C6.9025 17.7856 7.00242 17.0719 7.38244 16.2886C7.70781 15.6181 8.20988 14.953 9.08582 14.0318C9.21485 13.8963 9.5991 13.4999 9.60158 13.4999C9.60249 13.4999 9.58155 13.5338 9.5552 13.5751C9.32744 13.9319 9.13257 14.3522 9.0264 14.7161C8.85586 15.2999 8.87643 15.8009 9.08665 16.1894C9.23166 16.4571 9.48026 16.6889 9.75981 16.8171C10.2492 17.0413 10.9657 17.0599 11.8407 16.8714C11.901 16.8583 14.8862 16.1171 18.4746 15.2242C22.0631 14.3313 24.9995 13.6012 25 13.6018C25.001 13.6026 16.6631 16.9396 12.3347 18.6709C11.6493 18.9449 11.466 19.0142 11.1437 19.12C10.3199 19.3906 9.58201 19.5197 8.98553 19.4975Z" fill="white"/>
</g>
<path d="M47.98 22H49.1V11.948H48.106V20.404L42.296 11.948H41.134V22H42.114V13.432L47.98 22ZM52.5782 12.914C52.5782 12.494 52.2562 12.186 51.7802 12.186C51.3182 12.186 50.9962 12.494 50.9962 12.914C50.9962 13.348 51.3182 13.656 51.7802 13.656C52.2562 13.656 52.5782 13.348 52.5782 12.914ZM52.2842 22V14.622H51.3042V22H52.2842ZM55.3878 22V18.458L59.1398 22H60.4137L56.3818 18.234L60.1058 14.622H58.9438L55.3878 18.052V11.948H54.4078V22H55.3878ZM64.1417 22.14C65.8357 22.14 67.0817 21.146 67.4177 19.508H66.4517C66.2137 20.684 65.3597 21.37 64.1277 21.37C62.6857 21.37 61.7617 20.292 61.6777 18.542H67.3897C67.5577 16.176 66.1857 14.482 64.0857 14.482C62.1257 14.482 60.6977 16.092 60.6977 18.248C60.6977 20.586 62.0697 22.14 64.1417 22.14ZM64.0717 15.238C65.4297 15.238 66.2837 16.218 66.3677 17.87H61.6777C61.8037 16.26 62.7417 15.238 64.0717 15.238ZM79.0891 22H80.1951L76.3031 11.948H75.1551L71.2491 22H72.2851L73.3491 19.214H78.0391L79.0891 22ZM75.7011 13.068L77.7031 18.36H73.6711L75.7011 13.068ZM85.0807 21.062C84.7727 21.188 84.5207 21.244 84.2127 21.244C83.4007 21.244 82.8407 20.852 82.8407 19.704V15.448H85.1507V14.622H82.8407V12.438H81.8607V14.622H80.1247V15.448H81.8607V19.914C81.8607 21.51 82.7987 22.14 84.0167 22.14C84.3807 22.14 84.7027 22.084 85.0807 21.93V21.062ZM87.6124 17.702C87.6124 16.33 88.5364 15.336 89.6844 15.336C90.8884 15.336 91.5324 16.134 91.5324 17.548V22H92.5124V17.212C92.5124 15.462 91.5184 14.482 89.9784 14.482C88.9144 14.482 88.0744 15.098 87.6124 15.98V11.948H86.6324V22H87.6124V17.702ZM95.5557 22V11.948H94.5757V22H95.5557ZM100.577 22.14C102.271 22.14 103.517 21.146 103.853 19.508H102.887C102.649 20.684 101.795 21.37 100.563 21.37C99.1212 21.37 98.1972 20.292 98.1132 18.542H103.825C103.993 16.176 102.621 14.482 100.521 14.482C98.5612 14.482 97.1332 16.092 97.1332 18.248C97.1332 20.586 98.5052 22.14 100.577 22.14ZM100.507 15.238C101.865 15.238 102.719 16.218 102.803 17.87H98.1132C98.2392 16.26 99.1772 15.238 100.507 15.238ZM109.225 21.062C108.917 21.188 108.665 21.244 108.357 21.244C107.545 21.244 106.985 20.852 106.985 19.704V15.448H109.295V14.622H106.985V12.438H106.005V14.622H104.269V15.448H106.005V19.914C106.005 21.51 106.943 22.14 108.161 22.14C108.525 22.14 108.847 22.084 109.225 21.93V21.062ZM112.051 12.914C112.051 12.494 111.729 12.186 111.253 12.186C110.791 12.186 110.469 12.494 110.469 12.914C110.469 13.348 110.791 13.656 111.253 13.656C111.729 13.656 112.051 13.348 112.051 12.914ZM111.757 22V14.622H110.777V22H111.757ZM116.638 22.154C118.374 22.154 119.62 21.02 119.886 19.144H118.892C118.668 20.516 117.842 21.3 116.638 21.3C115.266 21.3 114.328 20.096 114.328 18.304C114.328 16.54 115.266 15.336 116.638 15.336C117.828 15.336 118.668 16.134 118.892 17.478H119.886C119.592 15.63 118.36 14.482 116.638 14.482C114.706 14.482 113.334 16.064 113.334 18.304C113.334 20.572 114.692 22.154 116.638 22.154Z" fill="#242D35"/>
<defs>
<clipPath id="clip0_287_520">
<rect width="18" height="6" fill="white" transform="translate(7 13.5)"/>
</clipPath>
</defs>
</svg>
